<svg xmlns="http://www.w3.org/2000/svg" width="512" height="512" viewBox="0 0 1180.58 2705.38" shape-rendering="geometricPrecision" text-rendering="geometricPrecision" image-rendering="optimizeQuality" fill-rule="evenodd" clip-rule="evenodd">
    <path fill="#373435" d="M126.55 1556.96S-124.9 1303.78 81.1 948.99c102.29-176.16 333.96-324.33 414.78-539.81 34.09-90.91 51.12-181.8 45.45-323.86C537.68-5.71 535.64.08 535.64.08s196.35 187.07 79.55 488.68C547 664.9 416.33 772.83 279.97 920.56c-106.59 115.49-187.52 266.66-187.52 420.46 0 62.56 34.1 215.94 34.1 215.94z"/>
    <path fill="#E41D32" d="M326.97 2108.2S75.53 1855 281.52 1500.22c102.3-176.16 333.97-324.33 414.77-539.81 34.1-90.9 51.13-181.8 45.46-323.87-3.64-91.02-5.69-85.23-5.69-85.23s196.31 187.06 79.56 488.65c-68.2 176.17-198.88 284.1-335.22 431.83-106.6 115.5-187.52 266.66-187.52 420.45 0 62.56 34.09 215.96 34.09 215.96z"/>
    <path fill="#373435" d="M531.52 2653.65s-251.45-253.18-45.45-607.96c102.3-176.17 333.96-324.34 414.78-539.82 34.1-90.88 51.12-181.78 45.45-323.86-3.65-91.02-5.68-85.22-5.68-85.22s196.31 187.05 79.55 488.64c-68.2 176.17-198.87 284.09-335.22 431.84-106.6 115.51-187.52 266.65-187.52 420.45 0 62.5 34.09 215.93 34.09 215.93z"/>
</svg>