<?xml version="1.0" encoding="UTF-8"?>
<!DOCTYPE svg PUBLIC "-//W3C//DTD SVG 1.1//EN" "http://www.w3.org/Graphics/SVG/1.1/DTD/svg11.dtd">
<!-- Creator: CorelDRAW 2019 (64-Bit) -->
<svg xmlns="http://www.w3.org/2000/svg" xml:space="preserve" width="171.806mm" height="27.0538mm" version="1.1" style="shape-rendering:geometricPrecision; text-rendering:geometricPrecision; image-rendering:optimizeQuality; fill-rule:evenodd; clip-rule:evenodd"
viewBox="0 0 17180.58 2705.38"
 xmlns:xlink="http://www.w3.org/1999/xlink">
 <defs>
  <style type="text/css">
   <![CDATA[
    .fil1 {fill:#E41D32;fill-rule:nonzero}
    .fil0 {fill:#373435;fill-rule:nonzero}
   ]]>
  </style>
 </defs>
 <g id="Ebene_x0020_1">
  <metadata id="CorelCorpID_0Corel-Layer"/>
  <g id="_1852917014976">
   <path class="fil0" d="M126.55 1556.96c0,0 -251.45,-253.18 -45.45,-607.97 102.29,-176.16 333.96,-324.33 414.78,-539.81 34.09,-90.91 51.12,-181.8 45.45,-323.86 -3.65,-91.03 -5.69,-85.24 -5.69,-85.24 0,0 196.35,187.07 79.55,488.68 -68.19,176.14 -198.86,284.07 -335.22,431.8 -106.59,115.49 -187.52,266.66 -187.52,420.46 0,62.56 34.1,215.94 34.1,215.94z"/>
   <path class="fil0" d="M326.97 2108.2c0,0 -251.44,-253.2 -45.45,-607.98 102.3,-176.16 333.97,-324.33 414.77,-539.81 34.1,-90.9 51.13,-181.8 45.46,-323.87 -3.64,-91.02 -5.69,-85.23 -5.69,-85.23 0,0 196.31,187.06 79.56,488.65 -68.2,176.17 -198.88,284.1 -335.22,431.83 -106.6,115.5 -187.52,266.66 -187.52,420.45 0,62.56 34.09,215.96 34.09,215.96z"/>
   <path class="fil0" d="M531.52 2653.65c0,0 -251.45,-253.18 -45.45,-607.96 102.3,-176.17 333.96,-324.34 414.78,-539.82 34.1,-90.88 51.12,-181.78 45.45,-323.86 -3.65,-91.02 -5.68,-85.22 -5.68,-85.22 0,0 196.31,187.05 79.55,488.64 -68.2,176.17 -198.87,284.09 -335.22,431.84 -106.6,115.51 -187.52,266.65 -187.52,420.45 0,62.5 34.09,215.93 34.09,215.93z"/>
   <path class="fil0" d="M4328.65 2653.65l0 -1579.46c0,-656.44 -389.85,-1074.16 -1090.08,-1074.16 -704.21,0 -1094.08,417.72 -1094.08,1074.16l0 1579.46 286.44 0 0 -1579.46c0,-501.26 278.5,-811.6 807.64,-811.6 525.16,0 803.65,310.34 803.65,811.6l0 1579.46 286.43 0z"/>
   <polygon class="fil0" points="6580.19,2653.65 6580.19,2391.08 4956.97,2391.08 4956.97,1667.33 6349.43,1667.33 6349.43,1404.75 4956.97,1404.75 4956.97,314.35 6580.19,314.35 6580.19,51.77 4670.52,51.77 4670.52,2653.65 "/>
   <g>
    <path class="fil1" d="M10196.3 1667.31l1682.87 0 0 986.34 286.47 0 0 -1539.66c0,-684.3 -397.85,-1113.98 -1125.91,-1113.98 -724.07,0 -1121.92,429.68 -1121.92,1113.98l0 664.63c-0.1,441.46 -258.64,664.18 -604.73,664.18 -350.09,0 -604.73,-234.72 -604.73,-664.42l0 -1726.64 -286.43 0 0 1726.64c0,429.7 -254.61,664.42 -604.71,664.42 -350.11,0 -608.75,-222.81 -608.75,-664.42l0 -1726.64 -286.43 0 0 1726.64c0,616.67 381.95,927 875.28,927 362.02,0 636.54,-171.07 763.85,-481.38l7.95 0c127.3,310.31 405.8,481.38 763.89,481.38 490.14,0 858.45,-305.92 863.14,-914.69l0.16 -123.38zm1682.87 -262.58l-1682.87 0 0 -290.74c0,-525.16 290.43,-851.4 839.45,-851.4 556.97,0 843.42,326.24 843.42,851.4l0 290.74z"/>
   </g>
   <path class="fil0" d="M14540.49 855.39c0,-461.48 -270.52,-803.65 -883.21,-803.65l-1149.8 0 0 2601.93 286.48 0 0 -986.68 791.71 0 704.18 986.68 346.14 0 -747.95 -998.61 0 -7.94c449.55,-79.57 652.45,-389.92 652.45,-791.73zm-290.43 0c0,310.33 -155.14,549.03 -588.82,549.03l-867.28 0 0 -1090.1 867.28 0c433.68,0 588.82,230.75 588.82,541.07z"/>
   <path class="fil0" d="M17180.57 1352.71c0,-779.8 -481.37,-1300.97 -1380.5,-1300.97l-930.97 0 0 2601.93 930.97 0c899.13,0 1380.5,-521.21 1380.5,-1300.96zm-286.42 0c0,624.61 -358.09,1038.38 -1094.08,1038.38l-644.52 0 0 -2076.78 644.52 0c735.99,0 1094.08,413.78 1094.08,1038.4z"/>
  </g>
 </g>
</svg>
