<?xml version="1.0" standalone="no"?>
<!DOCTYPE svg PUBLIC "-//W3C//DTD SVG 20010904//EN"
 "http://www.w3.org/TR/2001/REC-SVG-20010904/DTD/svg10.dtd">
<svg version="1.0" xmlns="http://www.w3.org/2000/svg"
 width="512.000000pt" height="512.000000pt" viewBox="0 0 512.000000 512.000000"
 preserveAspectRatio="xMidYMid meet">
<metadata>
Created by potrace 1.11, written by Peter Selinger 2001-2013
</metadata>
<g transform="translate(0.000000,512.000000) scale(0.100000,-0.100000)"
fill="#000000" stroke="none">
<path d="M2465 4908 c0 -236 -4 -280 -44 -435 -64 -248 -176 -415 -532 -788
-114 -120 -126 -133 -193 -220 -134 -172 -204 -326 -244 -530 -11 -61 -5 -251
12 -329 27 -132 117 -318 195 -405 25 -29 25 -30 7 56 -8 37 -17 84 -20 103
-3 19 -8 46 -10 60 -36 201 -11 380 79 575 80 172 163 283 384 515 87 91 186
197 220 235 242 272 365 557 355 828 -2 51 -6 103 -8 117 -3 14 -8 39 -12 55
-10 52 -44 142 -76 201 -26 50 -104 164 -111 164 -2 0 -3 -91 -2 -202z"/>
<path d="M2844 3879 c1 -253 -13 -366 -65 -521 -44 -131 -148 -314 -234 -413
-65 -74 -153 -172 -184 -204 -283 -299 -346 -379 -422 -531 -42 -84 -73 -167
-90 -240 -6 -25 -13 -54 -15 -65 -10 -42 -12 -233 -3 -288 24 -147 112 -349
195 -443 36 -42 39 -40 24 21 -28 111 -52 278 -51 355 1 230 109 492 290 710
55 66 35 44 208 226 222 234 269 287 341 392 279 401 288 844 24 1171 -19 24
-19 23 -18 -170z"/>
<path d="M3230 2953 c26 -434 -51 -720 -267 -998 -74 -94 -136 -164 -322 -361
-187 -198 -263 -301 -337 -462 -102 -220 -120 -472 -50 -695 33 -105 161 -327
188 -327 5 0 7 4 4 9 -6 8 -26 116 -42 219 -3 20 -9 55 -13 77 -25 144 24 382
115 555 92 175 145 242 393 499 135 141 232 250 299 339 72 96 165 270 196
367 57 179 63 351 20 523 -19 76 -105 247 -151 300 l-38 44 5 -89z"/>
</g>
</svg>
